<?xml version="1.0" standalone="no"?>
<!DOCTYPE svg PUBLIC "-//W3C//DTD SVG 1.1//EN" "http://www.w3.org/Graphics/SVG/1.1/DTD/svg11.dtd" >
<svg xmlns="http://www.w3.org/2000/svg">
<metadata></metadata>
<defs>
<font id="frutiger_lt_std_45_lightRg" horiz-adv-x="1138" >
<font-face units-per-em="2048" ascent="1536" descent="-512" />
<missing-glyph horiz-adv-x="569" />
<glyph unicode="&#xfb01;" d="M39 934v110h211v76q0 58 1 94.5t7 88t16.5 84t30.5 69t49 57t72.5 34.5t99.5 14q84 0 121 -21l-8 -113q-44 23 -102 23q-26 0 -47.5 -6t-37 -14.5t-27.5 -24.5t-20 -29t-13 -37t-8 -38.5t-4 -43t-1.5 -41.5t0 -42.5t0.5 -38.5v-91h235v-110h-235v-934h-129v934h-211z M825 0v1044h129v-1044h-129zM825 1323v172h129v-172h-129z" />
<glyph unicode="&#xfb02;" d="M39 934v110h211v76q0 58 1 94.5t7 88t16.5 84t30.5 69t49 57t72.5 34.5t99.5 14q84 0 121 -21l-8 -113q-44 23 -102 23q-26 0 -47.5 -6t-37 -14.5t-27.5 -24.5t-20 -29t-13 -37t-8 -38.5t-4 -43t-1.5 -41.5t0 -42.5t0.5 -38.5v-91h235v-110h-235v-934h-129v934h-211z M825 0v1536h129v-1536h-129z" />
<glyph horiz-adv-x="2048" />
<glyph horiz-adv-x="2048" />
<glyph unicode="&#xd;" horiz-adv-x="2048" />
<glyph unicode=" "  horiz-adv-x="569" />
<glyph unicode="&#x09;" horiz-adv-x="569" />
<glyph unicode="&#xa0;" horiz-adv-x="569" />
<glyph unicode="!" horiz-adv-x="796" d="M315 0v172h166v-172h-166zM315 1430h166l-24 -1084h-117z" />
<glyph unicode="&#x22;" d="M367 983v447h129v-447h-129zM643 983v447h129v-447h-129z" />
<glyph unicode="#" d="M70 449v110h227l45 311h-219v111h233l64 449h125l-64 -449h267l63 449h125l-64 -449h197v-111h-211l-43 -311h197v-110h-213l-64 -449h-125l64 449h-266l-64 -449h-125l64 449h-213zM424 559h266l43 311h-266z" />
<glyph unicode="$" d="M174 1081q0 145 97.5 242.5t254.5 122.5v133h105v-125q154 0 276 -47l-22 -129q-86 50 -254 53v-543q61 -33 101 -57t90 -63.5t79 -78t49.5 -93.5t20.5 -117q0 -84 -27.5 -152.5t-75.5 -115.5t-107.5 -77.5t-129.5 -45.5v-170h-105v159q-8 -2 -24 -2q-181 0 -324 62 l15 145q133 -84 315 -84q10 0 18 2v588q-45 24 -73.5 40.5t-70 43t-67.5 48t-55.5 52.5t-46 61.5t-28 68.5t-11.5 79zM315 1085q0 -73 54 -127.5t157 -111.5v475q-93 -19 -152 -77.5t-59 -158.5zM631 117q92 26 145 94.5t53 179.5q0 69 -51 124.5t-147 113.5v-512z" />
<glyph unicode="%" horiz-adv-x="2048" d="M215 1061q0 174 80.5 278.5t243.5 104.5t243 -104.5t80 -278.5t-80 -278.5t-243 -104.5t-243.5 104.5t-80.5 278.5zM344 1061q0 -52 9.5 -97t30 -86.5t60.5 -65.5t95 -24q44 0 79 16.5t56 43t35 63t19 73t5 77.5q0 52 -9 97t-29.5 86t-60.5 65t-95 24t-95 -24t-60.5 -65 t-30 -86t-9.5 -97zM541 -45l845 1520h119l-846 -1520h-118zM1186 369q0 174 80 278.5t243 104.5t243.5 -104.5t80.5 -278.5t-80.5 -278.5t-243.5 -104.5t-243 104.5t-80 278.5zM1315 369q0 -41 5 -77.5t19 -73t35 -63t56 -43t79 -16.5q55 0 95 24t60.5 65.5t30 86.5t9.5 97 t-9.5 97t-30 86t-60.5 65t-95 24t-95 -24t-60.5 -65t-29.5 -86t-9 -97z" />
<glyph unicode="&#x26;" horiz-adv-x="1366" d="M102 375q0 284 338 416q-46 53 -68.5 80.5t-55.5 76.5t-47.5 96.5t-14.5 98.5q0 98 58 170.5t144 106.5t183 34q65 0 124.5 -18.5t107 -53.5t76 -92.5t28.5 -130.5q0 -78 -23.5 -137t-83.5 -107.5t-97.5 -70.5t-126.5 -67q-4 -3 -7 -4.5t-6 -2.5l377 -420 q122 175 122 434h123q0 -141 -40.5 -276t-118.5 -240l243 -264h-180l-151 160q-169 -189 -435 -189q-93 0 -175.5 24.5t-149 71.5t-105.5 125.5t-39 178.5zM244 381q0 -139 96.5 -217t234.5 -78q97 0 194.5 45.5t158.5 120.5l-416 459q-112 -44 -190 -131.5t-78 -198.5z M395 1135q0 -40 12.5 -78.5t41 -79.5t48.5 -65t60 -68q123 58 170 94q107 80 107 199q0 99 -55 152.5t-148 53.5q-98 0 -167 -54.5t-69 -153.5z" />
<glyph unicode="'" horiz-adv-x="569" d="M221 983v447h129v-447h-129z" />
<glyph unicode="(" horiz-adv-x="569" d="M86 631q0 100 20.5 202.5t50 186.5t80.5 184.5t93 171.5t106 172h86q-61 -117 -91.5 -177t-79.5 -171t-73 -189t-43.5 -181t-19.5 -199t19.5 -199t43.5 -181.5t73 -189t79.5 -171t91.5 -177.5h-86q-64 101 -106 172t-93 172t-80.5 185t-50 186.5t-20.5 202.5z" />
<glyph unicode=")" horiz-adv-x="569" d="M47 -287q61 117 91.5 177.5t79.5 171t73 189t43.5 181.5t19.5 199t-19.5 199t-43.5 181t-73 189t-79.5 171t-91.5 177h86q64 -101 106 -172t93 -171.5t80.5 -184.5t50 -186.5t20.5 -202.5t-20.5 -202.5t-50 -186.5t-80.5 -185t-93 -172t-106 -172h-86z" />
<glyph unicode="*" d="M188 1112l35 119l301 -115l-14 314h119l-15 -314l297 115l39 -119l-301 -86l199 -244l-103 -77l-176 268l-172 -268l-100 77l192 244z" />
<glyph unicode="+" horiz-adv-x="1228" d="M94 449v141h449v448h141v-448h449v-141h-449v-449h-141v449h-449z" />
<glyph unicode="," horiz-adv-x="569" d="M111 -274l118 446h172l-161 -446h-129z" />
<glyph unicode="-" horiz-adv-x="681" d="M84 481v142h514v-142h-514z" />
<glyph unicode="." horiz-adv-x="569" d="M201 0v172h166v-172h-166z" />
<glyph unicode="/" horiz-adv-x="569" d="M-63 -25l555 1479h141l-555 -1479h-141z" />
<glyph unicode="0" d="M100 715q0 108 12 204.5t44 195.5t83 169.5t135.5 115t194.5 44.5t194.5 -44.5t135.5 -115t83 -169.5t44 -195.5t12 -204.5q0 -71 -4.5 -135t-17.5 -139.5t-34 -138.5t-57.5 -123t-84 -101.5t-117 -66.5t-154.5 -25t-154.5 25t-117 66.5t-84 101.5t-57.5 123t-34 138.5 t-17.5 139.5t-4.5 135zM242 715q0 -59 2.5 -109.5t10.5 -114.5t22 -115t39 -102.5t58.5 -86.5t83 -56.5t111.5 -21.5t112 21.5t83.5 56.5t58.5 86.5t38.5 102.5t22 115t11 115t2.5 109t-2.5 109t-11 115t-22 115t-38.5 102.5t-58.5 86.5t-83.5 56.5t-112 21.5t-111.5 -21.5 t-83 -56.5t-58.5 -86.5t-39 -102.5t-22 -115t-10.5 -114.5t-2.5 -109.5z" />
<glyph unicode="1" d="M252 1159l323 271h127v-1430h-141v1270l-231 -203z" />
<glyph unicode="2" d="M102 0v123l328 362q74 82 128 148.5t107 144.5t81 150.5t28 134.5q0 113 -72.5 185.5t-179.5 72.5q-93 0 -174 -25t-170 -77l-24 129q196 96 360 96q88 0 162.5 -22.5t131 -67.5t88.5 -118t32 -167q0 -76 -33 -161.5t-97 -177t-121.5 -161.5t-141.5 -163l-259 -283h685 v-123h-859z" />
<glyph unicode="3" d="M102 43l17 135q147 -69 344 -69q68 0 130.5 17t116.5 51.5t86.5 94.5t32.5 138q0 59 -17.5 105t-50 74.5t-69.5 47.5t-85 28t-86 12t-83 3h-131v123h37q49 0 89 2t92 8.5t92.5 18.5t81.5 33.5t68.5 51t44.5 74t17 99.5q0 58 -29 103.5t-77 72.5t-104.5 41t-116.5 14 q-158 0 -320 -76l-12 133q176 66 346 66q92 0 171.5 -20t144 -61t102 -111t37.5 -162q0 -128 -81.5 -218.5t-215.5 -123.5v-5q139 -6 218 -102.5t79 -243.5q0 -126 -69.5 -221t-185.5 -142.5t-261 -47.5q-201 0 -353 57z" />
<glyph unicode="4" d="M47 330v139l643 961h180v-977h211v-123h-211v-330h-141v330h-682zM176 453h553v835h-4z" />
<glyph unicode="5" d="M176 37v145q134 -73 305 -73q57 0 111 12t103 38t85.5 63t58 91t21.5 119q0 165 -88 244.5t-270 79.5q-158 0 -309 -45l14 719h731v-123h-592l-10 -459q91 31 217 31q208 0 328 -111t120 -307q0 -230 -142 -352.5t-378 -122.5q-173 0 -305 51z" />
<glyph unicode="6" d="M113 664q0 134 20.5 247.5t68 213.5t120.5 169.5t184 109.5t252 40q90 0 229 -33l-12 -135q-98 45 -236 45q-107 2 -192.5 -32t-139 -90.5t-89 -135.5t-50 -161.5t-14.5 -174.5h4q54 87 143 131.5t193 44.5q61 0 119 -12t118.5 -43.5t105 -80t73 -128.5t28.5 -182 q0 -212 -125 -341.5t-342 -129.5q-79 0 -144.5 20.5t-112 55t-82.5 86t-58 108.5t-36 127t-19.5 137.5t-5.5 143.5zM268 463q0 -92 31.5 -170t103 -131t172.5 -53q152 0 237 93.5t85 243.5q0 159 -77.5 246.5t-225.5 87.5q-152 0 -239 -87t-87 -230z" />
<glyph unicode="7" d="M119 1307v123h872v-123l-553 -1307h-155l569 1307h-733z" />
<glyph unicode="8" d="M94 367q0 79 24 140.5t72.5 105t102.5 73t131 57.5q-285 136 -285 367q0 69 28 126.5t73 95t102.5 63.5t114.5 37.5t112 11.5q68 0 130 -12t117 -38.5t95 -65t63 -94.5t23 -124q0 -207 -292 -367q65 -23 111 -44.5t92 -53.5t73.5 -69t45 -90t17.5 -119q0 -81 -27.5 -147 t-73.5 -109t-108 -71.5t-128.5 -41t-137.5 -12.5q-70 0 -137 14t-128.5 45t-108 74.5t-74 107.5t-27.5 140zM236 367q0 -77 49.5 -137t124.5 -90.5t159 -30.5q66 0 123.5 15t106 45.5t76.5 84.5t28 125q0 43 -17 81t-39.5 64t-63 53t-68.5 41.5t-77 38t-69 33.5 q-140 -57 -184 -83q-123 -71 -144 -183q-5 -27 -5 -57zM281 1098q0 -34 10.5 -66t25 -55.5t42 -49t47.5 -41t55.5 -35.5t53.5 -29.5t54 -26.5q58 28 101 54.5t89.5 64.5t71.5 85t25 99q0 72 -45 124.5t-108.5 75.5t-133.5 23q-121 0 -204.5 -58t-83.5 -165z" />
<glyph unicode="9" d="M100 973q0 212 125 341.5t342 129.5q459 0 459 -678q0 -134 -20.5 -247.5t-68 -213.5t-120.5 -169.5t-184 -109.5t-252 -40q-94 0 -229 32l12 136q98 -45 235 -45q90 -1 164.5 21.5t126.5 65t90.5 98t61 124t33 138.5t10.5 146h-4q-54 -87 -143 -131.5t-193 -44.5 q-61 0 -119 12t-118.5 44t-105.5 80.5t-73.5 128.5t-28.5 182zM242 983q0 -159 77.5 -246.5t225.5 -87.5q151 0 238 87.5t87 230.5q0 92 -31.5 170t-103 131t-172.5 53q-152 0 -236.5 -94t-84.5 -244z" />
<glyph unicode=":" horiz-adv-x="569" d="M201 0v172h166v-172h-166zM201 872v172h166v-172h-166z" />
<glyph unicode=";" horiz-adv-x="569" d="M111 -274l118 446h172l-161 -446h-129zM201 872v172h166v-172h-166z" />
<glyph unicode="&#x3c;" horiz-adv-x="1228" d="M94 455v127l1039 471v-135l-881 -400l881 -399v-135z" />
<glyph unicode="=" horiz-adv-x="1228" d="M94 242v141h1039v-141h-1039zM94 653v142h1039v-142h-1039z" />
<glyph unicode="&#x3e;" horiz-adv-x="1228" d="M96 -16v135l883 399l-883 400v135l1039 -471v-127z" />
<glyph unicode="?" horiz-adv-x="1024" d="M176 1403q169 51 299 51q81 0 150.5 -22t124.5 -65.5t86.5 -115.5t31.5 -164q0 -68 -19.5 -127.5t-50 -104t-68 -86t-75 -82.5t-68 -84.5t-50 -101.5t-19.5 -124v-31h-129v27q0 76 18.5 139.5t48.5 109t66 86t72 79.5t66 80.5t48.5 97.5t18.5 122q0 112 -72.5 178 t-185.5 66q-52 0 -106.5 -9t-89.5 -19t-91 -29zM373 0v172h166v-172h-166z" />
<glyph unicode="@" horiz-adv-x="1638" d="M82 715q0 113 29 219.5t90 201t147 165.5t208 112t265 41q108 0 213 -25t198 -77t163.5 -124t111.5 -173.5t41 -218.5q0 -124 -48 -234t-119.5 -179.5t-150 -109t-145.5 -39.5q-137 0 -161 125h-4q-33 -38 -58 -60.5t-77 -43.5t-117 -21q-120 0 -198.5 90t-78.5 218 q0 135 57.5 261t168.5 210t247 84q74 0 133 -39t93 -119l43 123h129l-175 -557q-20 -58 -20 -101q0 -47 45 -47q117 0 209 131.5t92 307.5q0 153 -84.5 267.5t-217 171t-290.5 56.5q-170 0 -308 -79t-217 -220t-79 -315q0 -176 79 -318t217 -221.5t308 -79.5t311.5 61.5 t229.5 166.5h125q-96 -165 -271.5 -258t-394.5 -93q-143 0 -265 41.5t-208 112.5t-147 166t-90 201.5t-29 218.5zM545 594q3 -93 42.5 -145t104.5 -52q71 0 136 43.5t107.5 109t67.5 140t25 139.5q0 98 -49 141.5t-115 43.5q-50 0 -105.5 -31.5t-103 -85.5t-79 -134.5 t-31.5 -168.5z" />
<glyph unicode="A" horiz-adv-x="1366" d="M27 0l585 1430h160l567 -1430h-147l-154 383h-721l-153 -383h-137zM371 506h620l-309 788z" />
<glyph unicode="B" d="M164 0v1430h340q93 0 170 -17.5t142.5 -56t102.5 -109.5t37 -170q0 -273 -260 -325v-4q139 -25 221 -113.5t82 -226.5q0 -91 -29 -161.5t-78.5 -116.5t-121 -75.5t-150 -42t-171.5 -12.5h-285zM305 123h148q62 0 115.5 7t108.5 26t93.5 49t63 80t24.5 116 q0 73 -25.5 126.5t-64 82.5t-99 46t-114 21.5t-125.5 4.5h-125v-559zM309 805h158q50 0 94 5.5t92.5 23t82.5 45.5t56.5 77.5t22.5 114.5q0 59 -21.5 103.5t-52.5 69t-75.5 39.5t-82 19.5t-79.5 4.5h-195v-502z" />
<glyph unicode="C" horiz-adv-x="1366" d="M117 715q0 216 87.5 383.5t252 261.5t381.5 94q79 0 178 -13.5t149 -39.5l-8 -131q-117 61 -319 61q-181 0 -314 -80.5t-199.5 -219t-66.5 -316.5q0 -182 65.5 -320t198 -217.5t316.5 -79.5q215 0 319 62l8 -123q-53 -32 -148 -47t-179 -15q-222 0 -386 93t-249.5 259.5 t-85.5 387.5z" />
<glyph unicode="D" horiz-adv-x="1366" d="M164 0v1430h354q188 0 327 -52t223 -148.5t124.5 -224t40.5 -288.5q0 -152 -40 -273t-111.5 -203.5t-175 -137t-225.5 -79t-267 -24.5h-250zM305 123h117q670 0 670 602q0 127 -30 227.5t-82 166t-126.5 108.5t-158.5 61.5t-183 18.5h-207v-1184z" />
<glyph unicode="E" horiz-adv-x="1024" d="M176 0v1430h701v-123h-560v-510h531v-123h-531v-551h584v-123h-725z" />
<glyph unicode="F" horiz-adv-x="909" d="M158 0v1430h680v-123h-539v-510h514v-123h-514v-674h-141z" />
<glyph unicode="G" horiz-adv-x="1478" d="M131 715q0 216 87.5 383.5t252 261.5t381.5 94q96 0 206.5 -17t176.5 -51l-16 -131q-138 76 -367 76q-181 0 -314 -80.5t-199.5 -219t-66.5 -316.5q0 -182 65.5 -320t198 -217.5t316.5 -79.5q83 0 170 12t133 40v501h-332v123h473v-711q-203 -88 -444 -88q-222 0 -386 93 t-249.5 259.5t-85.5 387.5z" />
<glyph unicode="H" horiz-adv-x="1366" d="M180 0v1430h142v-633h722v633h142v-1430h-142v674h-722v-674h-142z" />
<glyph unicode="I" horiz-adv-x="454" d="M158 0v1430h141v-1430h-141z" />
<glyph unicode="J" horiz-adv-x="681" d="M29 0v125q55 -27 133 -27q110 0 159.5 74.5t49.5 192.5v1065h141v-1061q0 -84 -19.5 -154t-59 -124.5t-105 -85t-152.5 -30.5q-80 0 -147 25z" />
<glyph unicode="K" horiz-adv-x="1251" d="M195 0v1430h141v-642l643 642h184l-692 -674l752 -756h-195l-692 715v-715h-141z" />
<glyph unicode="L" horiz-adv-x="909" d="M164 0v1430h141v-1307h574v-123h-715z" />
<glyph unicode="M" horiz-adv-x="1820" d="M176 0v1430h219l523 -1258l524 1258h203v-1430h-142v1288h-4l-520 -1288h-121l-536 1288h-5v-1288h-141z" />
<glyph unicode="N" horiz-adv-x="1366" d="M158 0v1430h178l727 -1258h4v1258h141v-1430h-190l-715 1233h-4v-1233h-141z" />
<glyph unicode="O" horiz-adv-x="1478" d="M111 715v15q1 140 37 264q38 131 113.5 235t198.5 164.5t279 60.5q126 0 230.5 -39.5t178 -109t124 -163.5t74.5 -202q23 -103 22 -215v-10q-2 -222 -72 -386.5t-212.5 -259t-344.5 -94.5q-152 0 -271 54t-196.5 152t-118 233.5t-42.5 300.5zM252 715q0 -93 18 -180.5 t57 -167.5t95 -139.5t137.5 -94.5t179.5 -35t179.5 35t137.5 94.5t95.5 139.5t57.5 167.5t18 180.5t-18 180.5t-57.5 167t-95.5 139t-137.5 94.5t-179.5 35t-179.5 -35t-137.5 -94.5t-95 -139t-57 -167t-18 -180.5z" />
<glyph unicode="P" horiz-adv-x="1024" d="M176 0v1430h352q206 0 324.5 -104t118.5 -302q0 -129 -61.5 -222.5t-163.5 -138.5t-232 -45h-197v-618h-141zM317 741h99q51 0 90 2t84.5 9t78 19t64.5 33.5t52 50.5t32 72t12 97q0 135 -73.5 209t-208.5 74h-230v-566z" />
<glyph unicode="Q" horiz-adv-x="1478" d="M111 715v15q0 139 37 264q38 131 113.5 235t198.5 164.5t279 60.5q126 0 230.5 -39.5t178 -109t124 -163.5t74.5 -202q22 -103 22 -215v-10q-2 -169 -43.5 -306t-125 -236.5t-202.5 -147.5l301 -291h-188l-254 252q-27 -6 -57 -9q-18 -2 -60 -2q-152 0 -271 54 t-196.5 152t-118 233.5t-42.5 300.5zM252 715q0 -93 18 -180.5t57 -167.5t95 -139.5t137.5 -94.5t179.5 -35t179.5 35t137.5 94.5t95.5 139.5t57.5 167.5t18 180.5t-18 180.5t-57.5 167t-95.5 139t-137.5 94.5t-179.5 35t-179.5 -35t-137.5 -94.5t-95 -139t-57 -167 t-18 -180.5z" />
<glyph unicode="R" d="M180 0v1430h369q199 0 309.5 -90.5t110.5 -280.5q0 -134 -90.5 -223t-227.5 -107v-4q34 -4 60 -15.5t41 -22t33 -38t25 -41.5t26 -55l243 -553h-155l-207 483q-24 55 -48.5 90.5t-45.5 56t-53 30.5t-58 12t-74 2h-116v-674h-142zM322 797h149q67 0 126.5 13.5t113 42.5 t85 82t31.5 124q0 49 -10 87t-26.5 64t-44.5 44.5t-55 28.5t-68 15.5t-74.5 7t-81.5 1.5h-145v-510z" />
<glyph unicode="S" horiz-adv-x="1024" d="M119 1081q0 168 129 270.5t323 102.5q157 0 281 -47l-23 -129q-95 53 -260 53q-58 0 -110.5 -13t-98.5 -40.5t-73 -77t-27 -115.5q0 -58 36 -107t94 -86t127.5 -73t139.5 -77.5t128 -89.5t94 -118t36 -155q0 -84 -27.5 -153t-73.5 -114.5t-107.5 -77t-127 -45.5 t-133.5 -14q-180 0 -323 62l14 145q133 -84 316 -84q141 0 231 74t90 219q0 50 -28 95t-74 78.5t-105 69.5t-120.5 67t-120.5 71t-105 82.5t-74 101t-28 125.5z" />
<glyph unicode="T" horiz-adv-x="1024" d="M20 1307v123h986v-123h-422v-1307h-142v1307h-422z" />
<glyph unicode="U" horiz-adv-x="1366" d="M166 500v930h141v-930q0 -181 98 -291.5t279 -110.5t279 110.5t98 291.5v930h141v-930q0 -121 -34.5 -216t-87.5 -151.5t-124 -93.5t-137.5 -50.5t-134.5 -13.5t-134.5 13.5t-137.5 50.5t-124 93.5t-87.5 151.5t-34.5 216z" />
<glyph unicode="V" horiz-adv-x="1251" d="M12 1430h150l461 -1289l477 1289h139l-543 -1430h-151z" />
<glyph unicode="W" horiz-adv-x="1933" d="M18 1430h146l352 -1270h4l367 1270h170l360 -1270h4l359 1270h135l-414 -1430h-168l-362 1270h-4l-369 -1270h-170z" />
<glyph unicode="X" horiz-adv-x="1251" d="M14 0l533 752l-479 678h165l402 -578l405 578h158l-481 -678l520 -752h-172l-436 651l-453 -651h-162z" />
<glyph unicode="Y" horiz-adv-x="1251" d="M25 1430h163l437 -699l448 699h154l-531 -824v-606h-141v606z" />
<glyph unicode="Z" horiz-adv-x="1024" d="M43 0v123l745 1184h-727v123h877v-123l-741 -1184h766v-123h-920z" />
<glyph unicode="[" horiz-adv-x="569" d="M141 -287v1835h332v-98h-203v-1638h203v-99h-332z" />
<glyph unicode="\" horiz-adv-x="569" d="M-63 1454h141l555 -1479h-141z" />
<glyph unicode="]" horiz-adv-x="569" d="M96 -188h203v1638h-203v98h332v-1835h-332v99z" />
<glyph unicode="^" horiz-adv-x="1228" d="M102 543l447 887h131l446 -887h-145l-367 745l-366 -745h-146z" />
<glyph unicode="_" horiz-adv-x="1024" d="M0 -154h1024v-102h-1024v102z" />
<glyph unicode="`" horiz-adv-x="454" d="M-8 1466h162l190 -295h-94z" />
<glyph unicode="a" horiz-adv-x="1024" d="M82 270q0 73 22.5 130.5t57 95.5t89.5 65.5t106.5 41.5t123 22t123 10t121.5 2h25v53q0 137 -55 202.5t-183 65.5q-172 0 -307 -86v125q61 30 150 51t157 21q193 0 280 -92.5t87 -296.5v-461q0 -147 10 -219h-127v168h-4q-41 -90 -135.5 -141.5t-196.5 -51.5 q-85 0 -149.5 22t-100.5 54t-58 75t-29 77t-7 67zM223 274q0 -97 60 -142.5t157 -45.5q62 0 112 15.5t82 38.5t55 59.5t34.5 67.5t18 72.5t7.5 66t1 57.5v63h-37q-64 0 -114.5 -3t-111 -11.5t-104 -26t-82 -44t-58.5 -69.5t-20 -98z" />
<glyph unicode="b" d="M150 0v1536h129v-668h4q6 18 20.5 41t43 52t63.5 52.5t87.5 39.5t110.5 16q112 0 196 -40.5t134.5 -115t75 -172t24.5 -219.5q0 -117 -27.5 -216t-79.5 -173t-135 -116t-188 -42q-114 0 -193.5 46t-131.5 145h-4v-166h-129zM279 522q0 -60 10 -118.5t33.5 -116.5 t57.5 -102t88 -71.5t120 -27.5q71 0 126.5 26.5t89 68.5t55.5 100.5t30 117t8 123.5t-8 123.5t-30 117t-55.5 100.5t-89 68.5t-126.5 26.5q-84 0 -147 -40.5t-96.5 -107t-49.5 -139t-16 -149.5z" />
<glyph unicode="c" horiz-adv-x="909" d="M84 522q0 242 142.5 394.5t373.5 152.5q126 0 252 -41l-10 -123q-120 53 -224 53q-185 0 -289 -120.5t-104 -315.5q0 -120 44.5 -218.5t132 -158t202.5 -59.5q110 0 236 47l12 -121q-105 -37 -268 -37q-122 0 -219 44t-157.5 120.5t-92 174t-31.5 208.5z" />
<glyph unicode="d" d="M100 522q0 122 24.5 219.5t75 172t134.5 115t196 40.5q72 0 134 -23.5t100.5 -58.5t61 -65.5t30.5 -53.5h4v668h129v-1536h-129v166h-4q-52 -99 -132 -145t-194 -46q-105 0 -188 42t-135 116t-79.5 173t-27.5 216zM242 522q0 -65 8 -123.5t30 -117t55.5 -100.5t89 -68.5 t126.5 -26.5q66 0 120 27.5t88 71.5t57.5 102t33.5 116.5t10 118.5t-10 118.5t-33.5 116.5t-57.5 102t-88 71.5t-120 27.5q-71 0 -126.5 -26.5t-89 -68.5t-55.5 -100.5t-30 -117t-8 -123.5z" />
<glyph unicode="e" horiz-adv-x="1024" d="M84 522q0 241 121.5 394t318.5 153q86 0 156 -27t118 -74t80.5 -113t47 -142t14.5 -162v-66h-715q0 -173 90.5 -286t253.5 -113q69 0 157.5 24t135.5 54v-131q-141 -58 -303 -58q-126 0 -219.5 41t-148.5 116t-81 172t-26 218zM225 596h574q0 56 -9 107.5t-29.5 98.5 t-51 81t-76 54.5t-101.5 20.5q-69 0 -128 -32.5t-97.5 -84.5t-60 -116t-21.5 -129z" />
<glyph unicode="f" horiz-adv-x="681" d="M39 934v110h211v76q0 58 1 94.5t7 88t16.5 84t30.5 69t49 57t72.5 34.5t99.5 14q84 0 121 -21l-8 -113q-44 23 -102 23q-26 0 -47.5 -6t-37 -14.5t-27.5 -24.5t-20 -29t-13 -37t-8 -38.5t-4 -43t-1.5 -41.5t0 -42.5t0.5 -38.5v-91h235v-110h-235v-934h-129v934h-211z" />
<glyph unicode="g" d="M100 522q0 122 24.5 219.5t75 172t134.5 115t196 40.5q115 0 187 -27.5t139 -115.5h4v118h129v-958q0 -113 -26.5 -206t-83 -166.5t-153 -114.5t-226.5 -41q-134 0 -316 55l11 129q144 -74 307 -74q70 0 124.5 15t92 39t64.5 65t42 82t23.5 101t11 111.5t2.5 123.5h-4 q-94 -205 -317 -205q-96 0 -173.5 32.5t-126.5 84.5t-81.5 122t-46 140t-13.5 143zM242 522q0 -80 17 -151t51 -130.5t94 -94.5t139 -35q83 0 147 37t99.5 98t53 131t17.5 145q0 99 -15.5 175t-50 136.5t-96 92.5t-147.5 32q-71 0 -126.5 -26.5t-89 -68.5t-55.5 -100.5 t-30 -117t-8 -123.5z" />
<glyph unicode="h" d="M162 0v1536h129v-668h4q43 90 128.5 145.5t197.5 55.5q82 0 144.5 -22t102.5 -59.5t64.5 -95t34.5 -122t10 -145.5v-625h-129v623q0 59 -5 104.5t-21 90.5t-42.5 74.5t-72 47.5t-107.5 18q-66 0 -119.5 -24t-88.5 -63.5t-58 -92.5t-33 -107.5t-10 -111.5v-559h-129z" />
<glyph unicode="i" horiz-adv-x="454" d="M162 0v1044h129v-1044h-129zM162 1323v172h129v-172h-129z" />
<glyph unicode="j" horiz-adv-x="454" d="M-57 -319q39 -13 77 -13t65 11t41.5 27.5t23 45t10.5 54t2 63.5v1175h129v-1191q0 -67 -11 -117.5t-36.5 -92t-73 -63.5t-115.5 -22q-62 0 -112 10v113zM162 1323v172h129v-172h-129z" />
<glyph unicode="k" horiz-adv-x="1024" d="M162 0v1536h129v-920l467 428h166l-510 -462l571 -582h-178l-516 537v-537h-129z" />
<glyph unicode="l" horiz-adv-x="454" d="M162 0v1536h129v-1536h-129z" />
<glyph unicode="m" horiz-adv-x="1705" d="M154 1044h125v-176l4 -2q42 74 68 103q90 100 257 100q39 0 78 -9.5t81.5 -32t74 -69t43.5 -110.5h4q37 96 126 158.5t208 62.5q155 0 242 -97t87 -253v-719h-129v694q0 121 -52 192.5t-169 71.5q-115 0 -197.5 -98t-82.5 -282v-578h-129v694q0 120 -52.5 192t-169.5 72 q-115 0 -197.5 -98t-82.5 -282v-578h-129v799q0 161 -8 245z" />
<glyph unicode="n" d="M154 1044h125v-186h4q19 42 41.5 74t61 66t98.5 52.5t137 18.5q94 0 164 -30t111 -85t61 -126t20 -160v-668h-129v635q0 323 -248 323q-68 0 -122.5 -23t-88.5 -60.5t-57 -88t-32 -102t-9 -106.5v-578h-129v799q0 161 -8 245z" />
<glyph unicode="o" d="M82 522q0 110 29.5 206.5t87 173.5t153 122t217.5 45t218 -45t153.5 -122t87 -173.5t29.5 -206.5t-29.5 -206.5t-87 -173.5t-153.5 -122t-218 -45t-217.5 45t-153 122t-87 173.5t-29.5 206.5zM223 522q0 -189 91.5 -312.5t254.5 -123.5t254.5 123.5t91.5 312.5 t-91.5 312.5t-254.5 123.5t-254.5 -123.5t-91.5 -312.5z" />
<glyph unicode="p" d="M150 -430v1474h129l-9 -190h4q45 77 81 114q100 101 253 101q112 0 196 -40.5t134.5 -115t75 -172t24.5 -219.5q0 -117 -27.5 -216t-79.5 -173t-135 -116t-188 -42q-121 0 -199 50t-126 153h-4v-608h-129zM279 522q0 -60 10 -118.5t33.5 -116.5t57.5 -102t88 -71.5 t120 -27.5q71 0 126.5 26.5t89 68.5t55.5 100.5t30 117t8 123.5t-8 123.5t-30 117t-55.5 100.5t-89 68.5t-126.5 26.5q-66 0 -120 -27.5t-88 -71.5t-57.5 -102t-33.5 -116.5t-10 -118.5z" />
<glyph unicode="q" d="M100 522q0 122 24.5 219.5t75 172t134.5 115t196 40.5q40 0 76.5 -7.5t63.5 -17.5t53.5 -27.5t42.5 -30.5t34 -34.5t25 -31t19 -28.5l12 -18h4v170h129v-1474h-129v608h-4q-48 -103 -126.5 -153t-199.5 -50q-105 0 -188 42t-135 116t-79.5 173t-27.5 216zM242 522 q0 -65 8 -123.5t30 -117t55.5 -100.5t89 -68.5t126.5 -26.5q66 0 120 27.5t88 71.5t57.5 102t33.5 116.5t10 118.5t-10 118.5t-33.5 116.5t-57.5 102t-88 71.5t-120 27.5q-71 0 -126.5 -26.5t-89 -68.5t-55.5 -100.5t-30 -117t-8 -123.5z" />
<glyph unicode="r" horiz-adv-x="681" d="M154 1044h129v-200h4q39 98 107 161.5t161 63.5q44 0 90 -12v-135q-41 12 -94 12q-73 0 -126.5 -38t-81 -102t-40 -132.5t-12.5 -145.5v-516h-129v811q0 157 -8 233z" />
<glyph unicode="s" horiz-adv-x="796" d="M70 25l12 127q132 -66 272 -66q97 0 164.5 50t67.5 136q0 50 -27.5 90t-72 67.5t-98 52.5t-107 52t-98 59t-72 81t-27.5 110q0 75 28.5 131.5t77.5 89t108 48.5t126 16q134 0 258 -47l-12 -113q-107 49 -232 49q-108 0 -166.5 -40t-58.5 -134q0 -39 28.5 -71t73.5 -56 t100 -48t110 -53.5t100 -66t73.5 -92.5t28.5 -125q0 -64 -23 -115.5t-60 -84.5t-85.5 -55.5t-97.5 -32t-99 -9.5q-168 0 -292 50z" />
<glyph unicode="t" horiz-adv-x="681" d="M41 934v110h205v252l129 45v-297h237v-110h-237v-676q0 -77 33 -124.5t106 -47.5q53 0 119 25l8 -107q-75 -29 -158 -29q-48 0 -85 10t-62 25t-42.5 43t-26.5 53t-14 66.5t-6 72t-1 79.5v610h-205z" />
<glyph unicode="u" d="M162 377v667h129v-634q0 -324 248 -324q84 0 147 34.5t96.5 92t49.5 121t16 133.5v577h129v-798q0 -162 8 -246h-125v186h-4q-19 -42 -41.5 -74t-61 -66t-98.5 -52.5t-137 -18.5q-94 0 -164 30t-111 85.5t-61 126.5t-20 160z" />
<glyph unicode="v" horiz-adv-x="909" d="M18 1044h142l289 -903h4l303 903h135l-367 -1044h-151z" />
<glyph unicode="w" horiz-adv-x="1593" d="M14 1044h142l274 -903h4l291 903h156l276 -903h4l289 903h129l-344 -1044h-156l-284 903h-4l-285 -903h-156z" />
<glyph unicode="x" horiz-adv-x="909" d="M16 0l367 553l-332 491h160l248 -389l252 389h147l-323 -491l358 -553h-160l-274 451l-293 -451h-150z" />
<glyph unicode="y" horiz-adv-x="909" d="M18 1044h142l293 -870h2l301 870h135l-418 -1200q-21 -60 -43 -106t-54 -89.5t-75.5 -67t-95.5 -23.5q-70 0 -139 16l12 111q53 -17 96 -17q40 0 69.5 15t51.5 49.5t35.5 69.5t31.5 94l27 92z" />
<glyph unicode="z" horiz-adv-x="909" d="M66 0v109l628 825h-604v110h754v-110l-629 -823h629v-111h-778z" />
<glyph unicode="{" horiz-adv-x="569" d="M78 582v98q79 0 119.5 77t40.5 199v344q0 115 58.5 181.5t149.5 66.5h113v-98h-102q-46 0 -68 -54t-22 -136v-338q0 -70 -19.5 -126.5t-49.5 -89t-56 -50.5t-47 -23v-4q16 -4 36 -15t44.5 -34.5t44.5 -55t33.5 -81t13.5 -107.5v-332q0 -83 22 -137.5t68 -54.5h102v-99 h-115q-89 0 -147.5 67.5t-58.5 182.5v348q0 118 -40.5 194.5t-119.5 76.5z" />
<glyph unicode="|" horiz-adv-x="454" d="M158 -512v2048h141v-2048h-141z" />
<glyph unicode="}" horiz-adv-x="569" d="M10 -188h103q46 0 68 54t22 136v338q0 70 19.5 126.5t49.5 89t56 50.5t47 23v4q-16 4 -36 15t-44.5 34.5t-44.5 55t-33.5 81t-13.5 107.5v331q0 83 -22 138t-68 55h-103v98h115q89 0 148 -67.5t59 -182.5v-348q0 -118 40.5 -194t119.5 -76v-98q-79 0 -119.5 -77.5 t-40.5 -199.5v-344q0 -115 -59 -181.5t-150 -66.5h-113v99z" />
<glyph unicode="~" horiz-adv-x="1228" d="M141 477q98 187 256 187q82 0 234 -74q55 -27 79 -38.5t61.5 -24.5t62.5 -13q29 0 55 12t49 36.5t38.5 45.5t37.5 56l73 -105q-97 -186 -256 -186q-35 0 -80.5 13.5t-71 24.5t-81.5 38q-6 3 -25.5 12l-26 12t-23 11t-24.5 11t-22 8.5t-22.5 8t-20 5.5t-21 4t-18.5 1 q-29 0 -55 -11.5t-49 -36t-38.5 -45.5t-37.5 -56z" />
<glyph unicode="&#xa1;" horiz-adv-x="796" d="M315 -385l25 1083h117l24 -1083h-166zM315 872v172h166v-172h-166z" />
<glyph unicode="&#xa2;" d="M203 522q0 242 142.5 394.5t373.5 152.5q46 0 69 -4l46 139h96l-51 -151q38 -7 92 -25l-10 -123q-55 24 -117 39l-275 -823q72 -35 154 -35q109 0 235 47l13 -121q-105 -37 -269 -37q-95 0 -172 29l-63 -190h-96l75 225q-118 66 -180.5 195t-62.5 288zM344 522 q0 -108 38 -201t107 -151l263 786q-6 2 -15 2q-185 0 -289 -120.5t-104 -315.5z" />
<glyph unicode="&#xa3;" d="M137 0v123h211v588h-186v110h186v101q0 84 11.5 155.5t42.5 141t80 118t129.5 78t185.5 29.5q72 0 135 -13.5t94 -29.5l-20 -127q-76 47 -209 47q-57 0 -103.5 -13.5t-78.5 -35t-55 -54.5t-36.5 -67.5t-21.5 -78t-10.5 -81t-2.5 -82.5v-88h340v-110h-340v-588h504v-123 h-856z" />
<glyph unicode="&#xa4;" d="M55 289l117 112q-111 138 -111 314q0 187 111 309l-117 113l88 92l117 -115q62 52 144 80.5t165 28.5q178 0 312 -109l110 115l92 -92l-110 -113q104 -121 104 -309q0 -187 -104 -314l110 -112l-92 -88l-110 114q-123 -108 -312 -108q-186 0 -309 108l-117 -114zM203 715 q0 -167 106 -279t260 -106q159 0 263 113.5t104 271.5q0 101 -46 189t-131.5 142t-189.5 54q-155 -6 -260.5 -119t-105.5 -266z" />
<glyph unicode="&#xa5;" d="M39 1430h156l374 -691l385 691h146l-398 -709h234v-98h-289l-6 -13v-153h295v-99h-295v-358h-141v358h-295v99h295v153l-6 13h-289v98h233z" />
<glyph unicode="&#xa6;" horiz-adv-x="454" d="M158 358h141v-716h-141v716zM158 666v716h141v-716h-141z" />
<glyph unicode="&#xa7;" d="M182 635q0 75 43.5 136.5t118.5 127.5l18 16l-14 9q-153 89 -153 223q0 80 34.5 141.5t90.5 96t118.5 52t126.5 17.5q155 0 297 -45l-14 -119q-36 19 -108.5 36t-135.5 17q-41 0 -85 -10t-86 -29t-69.5 -54.5t-27.5 -80.5q0 -54 34 -96.5t88 -71.5t119.5 -55.5t131 -56.5 t119.5 -65.5t88 -92t34 -127.5q0 -45 -10.5 -82.5t-38.5 -76t-44 -56.5t-60 -63q70 -39 114.5 -100.5t44.5 -141.5q0 -75 -30.5 -134.5t-76.5 -95t-104.5 -59.5t-109 -32.5t-94.5 -8.5q-178 0 -346 58l14 120q148 -67 332 -67q65 0 125.5 22t104.5 73t44 120q0 51 -35 91 t-90.5 66.5t-123.5 51.5t-135.5 54t-123 65.5t-90.5 94.5t-35 132zM324 643q0 -107 133 -164l239 -104l43 43q78 78 78 162q0 42 -12.5 73.5t-41 55.5t-53 38t-69.5 35l-178 84l-14 -8q-40 -23 -82.5 -84.5t-42.5 -130.5z" />
<glyph unicode="&#xa8;" horiz-adv-x="454" d="M-25 1237v172h154v-172h-154zM326 1237v172h153v-172h-153z" />
<glyph unicode="&#xa9;" horiz-adv-x="1638" d="M80 715q0 150 58.5 287t157.5 236t236 157.5t287 58.5t287 -58.5t236.5 -157.5t158 -236t58.5 -287t-58.5 -287t-158 -236.5t-236.5 -158t-287 -58.5t-287 58.5t-236 158t-157.5 236.5t-58.5 287zM221 715q0 -175 77.5 -319t215.5 -227t307 -83q167 0 304 83t214.5 227 t77.5 319t-77.5 319t-214.5 226.5t-304 82.5q-127 0 -238.5 -48.5t-191 -132.5t-125 -200t-45.5 -247zM403 715q0 204 118.5 333.5t318.5 129.5q144 0 245.5 -81t122.5 -229h-123q-19 91 -83.5 145t-159.5 54q-141 0 -219 -96.5t-78 -253.5q0 -147 83 -249.5t218 -102.5 q96 0 160 56.5t79 151.5h125q-31 -147 -129.5 -233t-234.5 -86q-198 0 -320.5 131.5t-122.5 329.5z" />
<glyph unicode="&#xaa;" horiz-adv-x="665" d="M49 981q0 45 14.5 81t37 59t58.5 40t69.5 26t81 14t81 6t80.5 1h16v31q0 24 -4 42t-16.5 40t-44.5 34.5t-80 12.5q-113 0 -201 -49v94q116 41 213 41q238 0 238 -233v-277q0 -88 6 -133h-102v98h-4q-23 -53 -81 -83.5t-126 -30.5q-236 0 -236 186zM154 991 q0 -57 39 -83.5t102 -26.5q41 -2 73 6.5t51.5 20t33.5 33.5t20.5 36.5t10 41t3.5 36v30.5v37h-24q-58 0 -107.5 -5.5t-97.5 -19t-76 -40.5t-28 -66z" />
<glyph unicode="&#xab;" d="M186 551l287 420h121l-272 -420l272 -420h-121zM545 551l286 420h121l-272 -420l272 -420h-121z" />
<glyph unicode="&#xac;" horiz-adv-x="1228" d="M94 653v142h1039v-562h-142v420h-897z" />
<glyph unicode="&#xad;" horiz-adv-x="681" d="M84 481v142h514v-142h-514z" />
<glyph unicode="&#xae;" horiz-adv-x="1638" d="M80 715q0 150 58.5 287t157.5 236t236 157.5t287 58.5t287 -58.5t236.5 -157.5t158 -236t58.5 -287t-58.5 -287t-158 -236.5t-236.5 -158t-287 -58.5t-287 58.5t-236 158t-157.5 236.5t-58.5 287zM221 715q0 -175 77.5 -319t215.5 -227t307 -83q167 0 304 83t214.5 227 t77.5 319t-77.5 319t-214.5 226.5t-304 82.5q-127 0 -238.5 -48.5t-191 -132.5t-125 -200t-45.5 -247zM537 283v866h331q297 0 297 -244q0 -105 -61.5 -172t-161.5 -67l246 -383h-150l-241 383h-119v-383h-141zM678 776h168q90 0 134 28t44 107q0 68 -50.5 97.5t-127.5 29.5 h-168v-262z" />
<glyph unicode="&#xaf;" horiz-adv-x="454" d="M-23 1257v111h500v-111h-500z" />
<glyph unicode="&#xb0;" horiz-adv-x="819" d="M86 1139q0 132 95 218.5t229 86.5q133 0 228 -86.5t95 -218.5t-95 -218.5t-228 -86.5q-134 0 -229 86.5t-95 218.5zM190 1139q0 -86 66.5 -146.5t153.5 -60.5t153 60.5t66 146.5q0 95 -61.5 151t-157.5 56t-158 -56t-62 -151z" />
<glyph unicode="&#xb1;" horiz-adv-x="1228" d="M94 0v141h1039v-141h-1039zM94 551v141h449v346h141v-346h449v-141h-449v-346h-141v346h-449z" />
<glyph unicode="&#xb2;" horiz-adv-x="739" d="M92 582v84l217 194q215 207 215 340q0 67 -45.5 106.5t-113.5 39.5q-110 0 -224 -62l-16 102q119 58 240 58q125 0 200.5 -58.5t75.5 -179.5q0 -35 -9 -70.5t-19.5 -62.5t-35 -62t-38.5 -53.5t-48 -53.5t-46 -46t-48 -45l-151 -133h403v-98h-557z" />
<glyph unicode="&#xb3;" horiz-adv-x="739" d="M70 602l10 107q107 -43 246 -43q86 0 150.5 43.5t64.5 113.5q1 31 -9.5 56t-26.5 40.5t-43.5 27t-49.5 16.5t-55.5 8t-51 3.5t-45.5 0.5h-57v98h57q32 0 63 2.5t72 11.5t70.5 24t50.5 43.5t21 66.5q0 125 -205 125q-110 0 -211 -48l-8 107q46 19 115.5 29t127.5 10 q55 0 105.5 -12t94.5 -36.5t70.5 -67.5t26.5 -99q0 -76 -53 -129t-141 -72v-4q94 -4 146 -63.5t52 -149.5q0 -62 -31 -110.5t-81.5 -76.5t-109 -42.5t-120.5 -14.5q-144 0 -245 35z" />
<glyph unicode="&#xb4;" horiz-adv-x="454" d="M109 1171l190 295h162l-258 -295h-94z" />
<glyph unicode="&#xb5;" d="M162 -430v1474h129v-634q0 -324 248 -324q84 0 147 34.5t96.5 92t49.5 121t16 133.5v577h129v-798q0 -162 8 -246h-125v186h-4q-19 -42 -41.5 -74t-61 -66t-98.5 -52.5t-137 -18.5q-127 0 -227 60v-465h-129z" />
<glyph unicode="&#xb6;" horiz-adv-x="1228" d="M98 1036q0 195 123 294.5t344 99.5h492v-1651h-129v1540h-275v-1540h-129v876q-184 0 -305 110t-121 271z" />
<glyph unicode="&#xb7;" horiz-adv-x="569" d="M188 637q0 45 30.5 71.5t68.5 26.5q37 0 66.5 -27t29.5 -71q0 -45 -29.5 -71.5t-66.5 -24.5q-38 -2 -68.5 24.5t-30.5 71.5z" />
<glyph unicode="&#xb8;" horiz-adv-x="454" d="M14 -334l15 76q29 -19 81 -39t101 -20q48 0 77 19t29 56q0 35 -21 55.5t-56 20.5q-47 0 -86 -8l59 174h55l-39 -111q63 7 68 7q64 0 106.5 -36t42.5 -98q0 -141 -225 -141q-87 0 -207 45z" />
<glyph unicode="&#xb9;" horiz-adv-x="739" d="M158 1280l211 164h106v-862h-117v749l-155 -119z" />
<glyph unicode="&#xba;" horiz-adv-x="739" d="M47 1122q0 143 81.5 238t242.5 94q82 -1 144.5 -27t100.5 -72t57 -104.5t19 -128.5q0 -65 -19 -122t-56.5 -103.5t-101 -73.5t-144.5 -28q-161 -1 -242.5 92.5t-81.5 234.5zM152 1122q0 -106 59 -173.5t160 -67.5t159 67t58 174q0 103 -59 174.5t-158 71.5t-159 -72 t-60 -174z" />
<glyph unicode="&#xbb;" d="M186 131l273 420l-273 420h121l287 -420l-287 -420h-121zM545 131l272 420l-272 420h121l286 -420l-286 -420h-121z" />
<glyph unicode="&#xbc;" horiz-adv-x="1708" d="M145 1280l211 164h107v-862h-117v749l-156 -119zM266 -45l908 1520h116l-907 -1520h-117zM883 186v101l426 575h139v-577h115v-99h-115v-186h-117v186h-448zM999 285h332v436h-4z" />
<glyph unicode="&#xbd;" horiz-adv-x="1708" d="M121 1280l211 164h106v-862h-116v749l-156 -119zM240 -45l907 1520h117l-908 -1520h-116zM1030 0v84l217 195q215 207 215 339q0 67 -45.5 106.5t-113.5 39.5q-110 0 -224 -62l-16 103q117 57 240 57q125 0 200.5 -58t75.5 -179q0 -48 -17 -97.5t-36.5 -83.5t-60.5 -81 t-62 -67.5t-68 -64.5l-151 -133h403v-98h-557z" />
<glyph unicode="&#xbe;" horiz-adv-x="1708" d="M109 602l10 107q107 -43 246 -43q86 0 150.5 43.5t64.5 113.5q1 31 -9.5 56t-26.5 40.5t-43.5 27t-49.5 16.5t-55.5 8t-51 3.5t-45.5 0.5h-57v98h57q32 0 63 2.5t71.5 11.5t70 24t50.5 43.5t21 66.5q0 125 -204 125q-110 0 -211 -48l-8 107q46 19 115.5 29t127.5 10 q55 0 105.5 -12t94.5 -36.5t70.5 -67.5t26.5 -99q0 -76 -53 -129t-141 -72v-4q94 -4 146 -63.5t52 -149.5q0 -62 -31 -110.5t-81.5 -76.5t-109 -42.5t-120.5 -14.5q-144 0 -245 35zM424 -45l907 1520h119l-907 -1520h-119zM922 186v101l426 575h139v-577h115v-99h-115v-186 h-117v186h-448zM1038 285h332v436h-4z" />
<glyph unicode="&#xbf;" horiz-adv-x="1024" d="M156 -43q0 68 19.5 128t50 104t68 85.5l75 83t68 85t50 101.5t19.5 124v30h129v-26q0 -76 -18.5 -139.5t-48.5 -109t-66 -86.5t-72 -80t-66 -80.5t-48.5 -97.5t-18.5 -122q0 -112 72.5 -178t185.5 -66q52 0 107 9.5t88 19.5t92 29l6 -129q-172 -52 -299 -52 q-81 0 -150.5 22t-124.5 65.5t-86.5 115.5t-31.5 164zM485 872v172h166v-172h-166z" />
<glyph unicode="&#xc0;" horiz-adv-x="1366" d="M27 0l585 1430h160l567 -1430h-147l-154 383h-721l-153 -383h-137zM371 506h620l-309 788zM449 1782h161l191 -295h-94z" />
<glyph unicode="&#xc1;" horiz-adv-x="1366" d="M27 0l585 1430h160l567 -1430h-147l-154 383h-721l-153 -383h-137zM371 506h620l-309 788zM565 1487l191 295h162l-259 -295h-94z" />
<glyph unicode="&#xc2;" horiz-adv-x="1366" d="M27 0l585 1430h160l567 -1430h-147l-154 383h-721l-153 -383h-137zM371 506h620l-309 788zM410 1487l190 295h168l190 -295h-94l-180 209l-180 -209h-94z" />
<glyph unicode="&#xc3;" horiz-adv-x="1366" d="M27 0l585 1430h160l567 -1430h-147l-154 383h-721l-153 -383h-137zM371 506h620l-309 788zM401 1534q16 76 58 130t108 54q47 0 125 -24q13 -4 35 -11.5t35 -11.5t20 -4q34 0 63 19t38 51h75q-7 -53 -27 -91t-47 -56.5t-50.5 -26t-45.5 -7.5q-43 0 -126 27q-77 25 -97 25 q-38 0 -56.5 -17t-33.5 -57h-74z" />
<glyph unicode="&#xc4;" horiz-adv-x="1366" d="M27 0l585 1430h160l567 -1430h-147l-154 383h-721l-153 -383h-137zM371 506h620l-309 788zM432 1552v172h154v-172h-154zM782 1552v172h154v-172h-154z" />
<glyph unicode="&#xc5;" horiz-adv-x="1366" d="M27 0l585 1430h160l567 -1430h-147l-154 383h-721l-153 -383h-137zM371 506h620l-309 788zM487 1671q0 82 56.5 138.5t140.5 56.5q83 0 140 -56.5t57 -138.5q0 -83 -56.5 -138.5t-140.5 -55.5q-85 0 -141 55.5t-56 138.5zM561 1671q0 -52 36.5 -86.5t86.5 -34.5 q53 0 88 34.5t35 86.5q0 51 -35.5 86t-87.5 35q-50 0 -86.5 -35.5t-36.5 -85.5z" />
<glyph unicode="&#xc6;" horiz-adv-x="1820" d="M0 0l893 1430h780v-123h-555v-510h527v-123h-527v-551h580v-123h-719v383h-586l-237 -383h-156zM469 506h508v813h-4z" />
<glyph unicode="&#xc7;" horiz-adv-x="1366" d="M117 715q0 216 87.5 383.5t252 261.5t381.5 94q79 0 178 -13.5t149 -39.5l-8 -131q-117 61 -319 61q-181 0 -314 -80.5t-199.5 -219t-66.5 -316.5q0 -182 65.5 -320t198 -217.5t316.5 -79.5q215 0 319 62l8 -123q-53 -32 -148 -47t-179 -15q-21 0 -29 2l-31 -88 q63 7 68 7q64 0 106.5 -36t42.5 -98q0 -141 -225 -141q-87 0 -207 45l15 76q29 -19 81 -39t101 -20q48 0 77 19t29 56q0 35 -21.5 55.5t-56.5 20.5q-47 0 -86 -8l52 156q-298 23 -467.5 221.5t-169.5 511.5z" />
<glyph unicode="&#xc8;" horiz-adv-x="1024" d="M176 0v1430h701v-123h-560v-510h531v-123h-531v-551h584v-123h-725zM276 1782h162l191 -295h-94z" />
<glyph unicode="&#xc9;" horiz-adv-x="1024" d="M176 0v1430h701v-123h-560v-510h531v-123h-531v-551h584v-123h-725zM393 1487l191 295h161l-258 -295h-94z" />
<glyph unicode="&#xca;" horiz-adv-x="1024" d="M176 0v1430h701v-123h-560v-510h531v-123h-531v-551h584v-123h-725zM238 1487l190 295h168l190 -295h-94l-180 209l-180 -209h-94z" />
<glyph unicode="&#xcb;" horiz-adv-x="1024" d="M176 0v1430h701v-123h-560v-510h531v-123h-531v-551h584v-123h-725zM260 1552v172h154v-172h-154zM610 1552v172h154v-172h-154z" />
<glyph unicode="&#xcc;" horiz-adv-x="454" d="M-8 1782h162l190 -295h-94zM158 0v1430h141v-1430h-141z" />
<glyph unicode="&#xcd;" horiz-adv-x="454" d="M109 1487l190 295h162l-258 -295h-94zM158 0v1430h141v-1430h-141z" />
<glyph unicode="&#xce;" horiz-adv-x="454" d="M-47 1487l190 295h168l191 -295h-94l-181 209l-180 -209h-94zM158 0v1430h141v-1430h-141z" />
<glyph unicode="&#xcf;" horiz-adv-x="454" d="M-25 1552v172h154v-172h-154zM158 0v1430h141v-1430h-141zM326 1552v172h153v-172h-153z" />
<glyph unicode="&#xd0;" horiz-adv-x="1366" d="M23 674v123h141v633h242q827 0 827 -713q0 -152 -40 -273t-111.5 -203.5t-175 -137t-225.5 -79t-267 -24.5h-250v674h-141zM305 123h117q670 0 670 602q0 135 -32.5 236.5t-90.5 167t-146.5 105.5t-190.5 56.5t-233 16.5h-94v-510h436v-123h-436v-551z" />
<glyph unicode="&#xd1;" horiz-adv-x="1366" d="M158 0v1430h178l727 -1258h4v1258h141v-1430h-190l-715 1233h-4v-1233h-141zM401 1534q16 76 58 130t108 54q47 0 125 -24q13 -4 35 -11.5t35 -11.5t20 -4q34 0 63 19t38 51h75q-7 -53 -27 -91t-47 -56.5t-50.5 -26t-45.5 -7.5q-43 0 -126 27q-77 25 -97 25 q-38 0 -56.5 -17t-33.5 -57h-74z" />
<glyph unicode="&#xd2;" horiz-adv-x="1478" d="M111 715q-2 148 36.5 279t114 235t198.5 164.5t279 60.5q126 0 230.5 -39.5t178 -109t124 -163.5t74 -201.5t22.5 -225.5q-2 -222 -72 -386.5t-212.5 -259t-344.5 -94.5q-152 0 -271 54t-196.5 152t-118 233.5t-42.5 300.5zM252 715q0 -93 18 -180.5t57 -167.5t95 -139.5 t137.5 -94.5t179.5 -35t179.5 35t137.5 94.5t95.5 139.5t57.5 167.5t18 180.5t-18 180.5t-57.5 167t-95.5 139t-137.5 94.5t-179.5 35t-179.5 -35t-137.5 -94.5t-95 -139t-57 -167t-18 -180.5zM504 1782h162l190 -295h-94z" />
<glyph unicode="&#xd3;" horiz-adv-x="1478" d="M111 715q-2 148 36.5 279t114 235t198.5 164.5t279 60.5q126 0 230.5 -39.5t178 -109t124 -163.5t74 -201.5t22.5 -225.5q-2 -222 -72 -386.5t-212.5 -259t-344.5 -94.5q-152 0 -271 54t-196.5 152t-118 233.5t-42.5 300.5zM252 715q0 -93 18 -180.5t57 -167.5t95 -139.5 t137.5 -94.5t179.5 -35t179.5 35t137.5 94.5t95.5 139.5t57.5 167.5t18 180.5t-18 180.5t-57.5 167t-95.5 139t-137.5 94.5t-179.5 35t-179.5 -35t-137.5 -94.5t-95 -139t-57 -167t-18 -180.5zM621 1487l190 295h162l-258 -295h-94z" />
<glyph unicode="&#xd4;" horiz-adv-x="1478" d="M111 715q-2 148 36.5 279t114 235t198.5 164.5t279 60.5q126 0 230.5 -39.5t178 -109t124 -163.5t74 -201.5t22.5 -225.5q-2 -222 -72 -386.5t-212.5 -259t-344.5 -94.5q-152 0 -271 54t-196.5 152t-118 233.5t-42.5 300.5zM252 715q0 -93 18 -180.5t57 -167.5t95 -139.5 t137.5 -94.5t179.5 -35t179.5 35t137.5 94.5t95.5 139.5t57.5 167.5t18 180.5t-18 180.5t-57.5 167t-95.5 139t-137.5 94.5t-179.5 35t-179.5 -35t-137.5 -94.5t-95 -139t-57 -167t-18 -180.5zM465 1487l190 295h168l191 -295h-94l-181 209l-180 -209h-94z" />
<glyph unicode="&#xd5;" horiz-adv-x="1478" d="M111 715q-2 148 36.5 279t114 235t198.5 164.5t279 60.5q126 0 230.5 -39.5t178 -109t124 -163.5t74 -201.5t22.5 -225.5q-2 -222 -72 -386.5t-212.5 -259t-344.5 -94.5q-152 0 -271 54t-196.5 152t-118 233.5t-42.5 300.5zM252 715q0 -93 18 -180.5t57 -167.5t95 -139.5 t137.5 -94.5t179.5 -35t179.5 35t137.5 94.5t95.5 139.5t57.5 167.5t18 180.5t-18 180.5t-57.5 167t-95.5 139t-137.5 94.5t-179.5 35t-179.5 -35t-137.5 -94.5t-95 -139t-57 -167t-18 -180.5zM457 1534q16 76 58 130t108 54q47 0 125 -24q13 -4 35 -11.5t35 -11.5t20 -4 q34 0 62.5 19t37.5 51h76q-7 -53 -27 -91t-47 -56.5t-50.5 -26t-45.5 -7.5q-44 0 -127 27q-77 25 -96 25q-38 0 -57.5 -17.5t-33.5 -56.5h-73z" />
<glyph unicode="&#xd6;" horiz-adv-x="1478" d="M111 715q-2 148 36.5 279t114 235t198.5 164.5t279 60.5q126 0 230.5 -39.5t178 -109t124 -163.5t74 -201.5t22.5 -225.5q-2 -222 -72 -386.5t-212.5 -259t-344.5 -94.5q-152 0 -271 54t-196.5 152t-118 233.5t-42.5 300.5zM252 715q0 -93 18 -180.5t57 -167.5t95 -139.5 t137.5 -94.5t179.5 -35t179.5 35t137.5 94.5t95.5 139.5t57.5 167.5t18 180.5t-18 180.5t-57.5 167t-95.5 139t-137.5 94.5t-179.5 35t-179.5 -35t-137.5 -94.5t-95 -139t-57 -167t-18 -180.5zM487 1552v172h154v-172h-154zM838 1552v172h153v-172h-153z" />
<glyph unicode="&#xd7;" horiz-adv-x="1228" d="M145 156l371 370l-371 369l101 100l370 -370l367 370l102 -100l-368 -369l368 -370l-102 -103l-367 373l-370 -373z" />
<glyph unicode="&#xd8;" horiz-adv-x="1478" d="M59 23l181 206q-126 184 -129 486q-2 148 36.5 279t114 235t198.5 164.5t279 60.5q261 0 424 -166l176 201l80 -68l-186 -215q138 -197 135 -491q-2 -222 -72 -386.5t-212.5 -259t-344.5 -94.5q-278 0 -434 170l-166 -190zM252 715q0 -211 88 -369l731 836 q-130 149 -332 149q-98 0 -179.5 -35t-137.5 -94.5t-95 -139t-57 -167t-18 -180.5zM401 254q129 -156 338 -156q98 0 179.5 35t137.5 94.5t95.5 139.5t57.5 167.5t18 180.5q0 217 -92 379z" />
<glyph unicode="&#xd9;" horiz-adv-x="1366" d="M166 500v930h141v-930q0 -181 98 -291.5t279 -110.5t279 110.5t98 291.5v930h141v-930q0 -121 -34.5 -216t-87.5 -151.5t-124 -93.5t-137.5 -50.5t-134.5 -13.5t-134.5 13.5t-137.5 50.5t-124 93.5t-87.5 151.5t-34.5 216zM449 1782h161l191 -295h-94z" />
<glyph unicode="&#xda;" horiz-adv-x="1366" d="M166 500v930h141v-930q0 -181 98 -291.5t279 -110.5t279 110.5t98 291.5v930h141v-930q0 -121 -34.5 -216t-87.5 -151.5t-124 -93.5t-137.5 -50.5t-134.5 -13.5t-134.5 13.5t-137.5 50.5t-124 93.5t-87.5 151.5t-34.5 216zM565 1487l191 295h162l-259 -295h-94z" />
<glyph unicode="&#xdb;" horiz-adv-x="1366" d="M166 500v930h141v-930q0 -181 98 -291.5t279 -110.5t279 110.5t98 291.5v930h141v-930q0 -121 -34.5 -216t-87.5 -151.5t-124 -93.5t-137.5 -50.5t-134.5 -13.5t-134.5 13.5t-137.5 50.5t-124 93.5t-87.5 151.5t-34.5 216zM410 1487l190 295h168l190 -295h-94l-180 209 l-180 -209h-94z" />
<glyph unicode="&#xdc;" horiz-adv-x="1366" d="M166 500v930h141v-930q0 -181 98 -291.5t279 -110.5t279 110.5t98 291.5v930h141v-930q0 -121 -34.5 -216t-87.5 -151.5t-124 -93.5t-137.5 -50.5t-134.5 -13.5t-134.5 13.5t-137.5 50.5t-124 93.5t-87.5 151.5t-34.5 216zM432 1552v172h154v-172h-154zM782 1552v172h154 v-172h-154z" />
<glyph unicode="&#xdd;" horiz-adv-x="1251" d="M25 1430h163l437 -699l448 699h154l-531 -824v-606h-141v606zM508 1487l190 295h162l-258 -295h-94z" />
<glyph unicode="&#xde;" horiz-adv-x="1024" d="M176 0v1430h141v-267h211q206 0 324.5 -103.5t118.5 -301.5q0 -129 -61.5 -222.5t-163.5 -138.5t-232 -45h-197v-352h-141zM317 475h99q51 0 90 2t84.5 9t78 19t64.5 33.5t52 50.5t32 72t12 97q0 135 -73.5 208.5t-208.5 73.5h-230v-565z" />
<glyph unicode="&#xdf;" d="M162 0v1110q0 206 103.5 328.5t305.5 122.5q176 0 281.5 -102.5t105.5 -278.5q0 -139 -73 -234t-201 -123v-4q171 -13 261.5 -113.5t90.5 -265.5q0 -201 -120 -327.5t-324 -126.5q-108 0 -174 24l8 121q56 -35 168 -35q143 0 222 94.5t79 247.5q0 88 -27.5 150 t-80.5 97.5t-122 51t-161 15.5h-21v110h37q130 0 213.5 86.5t83.5 227.5q0 120 -66 197t-180 77q-280 0 -280 -385v-1065h-129z" />
<glyph unicode="&#xe0;" horiz-adv-x="1024" d="M82 270q0 73 22.5 130.5t57 95.5t89.5 65.5t106.5 41.5t123 22t123 10t121.5 2h25v53q0 137 -55 202.5t-183 65.5q-172 0 -307 -86v125q61 30 150 51t157 21q193 0 280 -92.5t87 -296.5v-461q0 -147 10 -219h-127v168h-4q-41 -90 -135.5 -141.5t-196.5 -51.5 q-85 0 -149.5 22t-100.5 54t-58 75t-29 77t-7 67zM223 274q0 -97 60 -142.5t157 -45.5q62 0 112 15.5t82 38.5t55 59.5t34.5 67.5t18 72.5t7.5 66t1 57.5v63h-37q-64 0 -114.5 -3t-111 -11.5t-104 -26t-82 -44t-58.5 -69.5t-20 -98zM276 1448h162l191 -295h-94z" />
<glyph unicode="&#xe1;" horiz-adv-x="1024" d="M82 270q0 73 22.5 130.5t57 95.5t89.5 65.5t106.5 41.5t123 22t123 10t121.5 2h25v53q0 137 -55 202.5t-183 65.5q-172 0 -307 -86v125q61 30 150 51t157 21q193 0 280 -92.5t87 -296.5v-461q0 -147 10 -219h-127v168h-4q-41 -90 -135.5 -141.5t-196.5 -51.5 q-85 0 -149.5 22t-100.5 54t-58 75t-29 77t-7 67zM223 274q0 -97 60 -142.5t157 -45.5q62 0 112 15.5t82 38.5t55 59.5t34.5 67.5t18 72.5t7.5 66t1 57.5v63h-37q-64 0 -114.5 -3t-111 -11.5t-104 -26t-82 -44t-58.5 -69.5t-20 -98zM393 1153l191 295h161l-258 -295h-94z " />
<glyph unicode="&#xe2;" horiz-adv-x="1024" d="M82 270q0 73 22.5 130.5t57 95.5t89.5 65.5t106.5 41.5t123 22t123 10t121.5 2h25v53q0 137 -55 202.5t-183 65.5q-172 0 -307 -86v125q61 30 150 51t157 21q193 0 280 -92.5t87 -296.5v-461q0 -147 10 -219h-127v168h-4q-41 -90 -135.5 -141.5t-196.5 -51.5 q-85 0 -149.5 22t-100.5 54t-58 75t-29 77t-7 67zM223 274q0 -97 60 -142.5t157 -45.5q62 0 112 15.5t82 38.5t55 59.5t34.5 67.5t18 72.5t7.5 66t1 57.5v63h-37q-64 0 -114.5 -3t-111 -11.5t-104 -26t-82 -44t-58.5 -69.5t-20 -98zM238 1153l190 295h168l190 -295h-94 l-180 209l-180 -209h-94z" />
<glyph unicode="&#xe3;" horiz-adv-x="1024" d="M82 270q0 73 22.5 130.5t57 95.5t89.5 65.5t106.5 41.5t123 22t123 10t121.5 2h25v53q0 137 -55 202.5t-183 65.5q-172 0 -307 -86v125q61 30 150 51t157 21q193 0 280 -92.5t87 -296.5v-461q0 -147 10 -219h-127v168h-4q-41 -90 -135.5 -141.5t-196.5 -51.5 q-85 0 -149.5 22t-100.5 54t-58 75t-29 77t-7 67zM223 274q0 -97 60 -142.5t157 -45.5q62 0 112 15.5t82 38.5t55 59.5t34.5 67.5t18 72.5t7.5 66t1 57.5v63h-37q-64 0 -114.5 -3t-111 -11.5t-104 -26t-82 -44t-58.5 -69.5t-20 -98zM229 1200q16 76 58 130t108 54 q47 0 125 -24q13 -4 35 -11.5t35 -11.5t20 -4q34 0 63 19t38 51h75q-7 -53 -27 -91t-47 -56t-50.5 -25.5t-45.5 -7.5q-47 0 -127 26q-77 25 -96 25q-38 0 -56.5 -17t-33.5 -57h-74z" />
<glyph unicode="&#xe4;" horiz-adv-x="1024" d="M82 270q0 73 22.5 130.5t57 95.5t89.5 65.5t106.5 41.5t123 22t123 10t121.5 2h25v53q0 137 -55 202.5t-183 65.5q-172 0 -307 -86v125q61 30 150 51t157 21q193 0 280 -92.5t87 -296.5v-461q0 -147 10 -219h-127v168h-4q-41 -90 -135.5 -141.5t-196.5 -51.5 q-85 0 -149.5 22t-100.5 54t-58 75t-29 77t-7 67zM223 274q0 -97 60 -142.5t157 -45.5q62 0 112 15.5t82 38.5t55 59.5t34.5 67.5t18 72.5t7.5 66t1 57.5v63h-37q-64 0 -114.5 -3t-111 -11.5t-104 -26t-82 -44t-58.5 -69.5t-20 -98zM260 1219v172h154v-172h-154zM610 1219 v172h154v-172h-154z" />
<glyph unicode="&#xe5;" horiz-adv-x="1024" d="M82 270q0 73 22.5 130.5t57 95.5t89.5 65.5t106.5 41.5t123 22t123 10t121.5 2h25v53q0 137 -55 202.5t-183 65.5q-172 0 -307 -86v125q61 30 150 51t157 21q193 0 280 -92.5t87 -296.5v-461q0 -147 10 -219h-127v168h-4q-41 -90 -135.5 -141.5t-196.5 -51.5 q-85 0 -149.5 22t-100.5 54t-58 75t-29 77t-7 67zM223 274q0 -97 60 -142.5t157 -45.5q62 0 112 15.5t82 38.5t55 59.5t34.5 67.5t18 72.5t7.5 66t1 57.5v63h-37q-64 0 -114.5 -3t-111 -11.5t-104 -26t-82 -44t-58.5 -69.5t-20 -98zM315 1327q0 82 56.5 138.5t140.5 56.5 q83 0 140 -56.5t57 -138.5q0 -83 -56.5 -138.5t-140.5 -55.5q-85 0 -141 55.5t-56 138.5zM389 1327q0 -52 36.5 -86.5t86.5 -34.5q53 0 88 34.5t35 86.5q0 51 -35.5 86t-87.5 35q-50 0 -86.5 -35.5t-36.5 -85.5z" />
<glyph unicode="&#xe6;" horiz-adv-x="1705" d="M94 254q0 69 22 123.5t55 89.5t86 60.5t99.5 38.5t111.5 20t106 8.5t98 1.5h90v55q0 71 -10.5 123t-36 95.5t-73 66t-116.5 22.5q-174 0 -309 -86v125q61 30 150 51t157 21q124 0 204.5 -42t129.5 -146q56 86 146.5 137t191.5 51q86 0 156 -27t118 -74t80.5 -113t47 -142 t14.5 -162v-66h-709v-47q0 -77 19 -139.5t58.5 -111t106 -75t154.5 -26.5q69 0 157.5 24t135.5 54v-131q-141 -58 -303 -58q-155 0 -256 57.5t-141 153.5q-145 -211 -396 -211q-159 0 -251.5 72t-92.5 207zM236 254q0 -78 66 -123t151 -45q83 0 144.5 26.5t96.5 74.5 t51.5 108.5t16.5 134.5v55h-45q-38 0 -60 -0.5t-65.5 -2.5t-72 -5.5t-69 -11.5t-67.5 -19.5t-57.5 -29t-48 -40t-29.5 -54t-12 -68.5zM903 596h567q0 71 -15 133.5t-45.5 115t-83 83t-122.5 30.5q-88 0 -158 -53.5t-106.5 -135.5t-36.5 -173z" />
<glyph unicode="&#xe7;" horiz-adv-x="909" d="M84 522q0 242 142.5 394.5t373.5 152.5q126 0 252 -41l-10 -123q-120 53 -224 53q-185 0 -289 -120.5t-104 -315.5q0 -120 44.5 -218.5t132 -158t202.5 -59.5q110 0 236 47l12 -121q-105 -37 -268 -37h-4l-31 -86q63 7 67 7q64 0 107 -36t43 -98q0 -141 -225 -141 q-87 0 -207 45l14 76q29 -19 81 -39t101 -20q48 0 77.5 19t29.5 56q0 35 -21.5 55.5t-56.5 20.5q-47 0 -86 -8l53 154q-109 11 -194.5 58.5t-139 121.5t-81 166t-27.5 196z" />
<glyph unicode="&#xe8;" horiz-adv-x="1024" d="M84 522q0 241 121.5 394t318.5 153q86 0 156 -27t118 -74t80.5 -113t47 -142t14.5 -162v-66h-715q0 -173 90.5 -286t253.5 -113q69 0 157.5 24t135.5 54v-131q-141 -58 -303 -58q-126 0 -219.5 41t-148.5 116t-81 172t-26 218zM225 596h574q0 56 -9 107.5t-29.5 98.5 t-51 81t-76 54.5t-101.5 20.5q-69 0 -128 -32.5t-97.5 -84.5t-60 -116t-21.5 -129zM276 1448h162l191 -295h-94z" />
<glyph unicode="&#xe9;" horiz-adv-x="1024" d="M84 522q0 241 121.5 394t318.5 153q86 0 156 -27t118 -74t80.5 -113t47 -142t14.5 -162v-66h-715q0 -173 90.5 -286t253.5 -113q69 0 157.5 24t135.5 54v-131q-141 -58 -303 -58q-126 0 -219.5 41t-148.5 116t-81 172t-26 218zM225 596h574q0 56 -9 107.5t-29.5 98.5 t-51 81t-76 54.5t-101.5 20.5q-69 0 -128 -32.5t-97.5 -84.5t-60 -116t-21.5 -129zM393 1153l191 295h161l-258 -295h-94z" />
<glyph unicode="&#xea;" horiz-adv-x="1024" d="M84 522q0 241 121.5 394t318.5 153q86 0 156 -27t118 -74t80.5 -113t47 -142t14.5 -162v-66h-715q0 -173 90.5 -286t253.5 -113q69 0 157.5 24t135.5 54v-131q-141 -58 -303 -58q-126 0 -219.5 41t-148.5 116t-81 172t-26 218zM225 596h574q0 56 -9 107.5t-29.5 98.5 t-51 81t-76 54.5t-101.5 20.5q-69 0 -128 -32.5t-97.5 -84.5t-60 -116t-21.5 -129zM238 1153l190 295h168l190 -295h-94l-180 209l-180 -209h-94z" />
<glyph unicode="&#xeb;" horiz-adv-x="1024" d="M84 522q0 241 121.5 394t318.5 153q86 0 156 -27t118 -74t80.5 -113t47 -142t14.5 -162v-66h-715q0 -173 90.5 -286t253.5 -113q69 0 157.5 24t135.5 54v-131q-141 -58 -303 -58q-126 0 -219.5 41t-148.5 116t-81 172t-26 218zM225 596h574q0 56 -9 107.5t-29.5 98.5 t-51 81t-76 54.5t-101.5 20.5q-69 0 -128 -32.5t-97.5 -84.5t-60 -116t-21.5 -129zM260 1219v172h154v-172h-154zM610 1219v172h154v-172h-154z" />
<glyph unicode="&#xec;" horiz-adv-x="454" d="M-8 1448h162l190 -295h-94zM162 0v1044h129v-1044h-129z" />
<glyph unicode="&#xed;" horiz-adv-x="454" d="M109 1153l190 295h162l-258 -295h-94zM162 0v1044h129v-1044h-129z" />
<glyph unicode="&#xee;" horiz-adv-x="454" d="M-47 1153l190 295h168l191 -295h-94l-181 209l-180 -209h-94zM162 0v1044h129v-1044h-129z" />
<glyph unicode="&#xef;" horiz-adv-x="454" d="M-25 1219v172h154v-172h-154zM162 0v1044h129v-1044h-129zM326 1219v172h153v-172h-153z" />
<glyph unicode="&#xf0;" d="M82 522q0 110 29.5 206.5t87 173.5t153 122t217.5 45q191 0 322 -162h4q-55 236 -240 385l-221 -137l-61 86l186 117q-123 73 -276 104l24 99q213 -28 373 -129l219 135l62 -86l-191 -117q287 -248 287 -758q0 -309 -121 -470t-367 -161q-122 0 -217.5 45t-153 122 t-87 173.5t-29.5 206.5zM223 522q0 -189 91.5 -312.5t254.5 -123.5t254.5 123.5t91.5 312.5t-91.5 312.5t-254.5 123.5t-254.5 -123.5t-91.5 -312.5z" />
<glyph unicode="&#xf1;" d="M154 1044h125v-186h4q19 42 41.5 74t61 66t98.5 52.5t137 18.5q94 0 164 -30t111 -85t61 -126t20 -160v-668h-129v635q0 323 -248 323q-68 0 -122.5 -23t-88.5 -60.5t-57 -88t-32 -102t-9 -106.5v-578h-129v799q0 161 -8 245zM287 1200q16 76 58 130t108 54q47 0 125 -24 q13 -4 35 -11.5t35 -11.5t20 -4q34 0 62.5 19t37.5 51h76q-7 -53 -27 -91t-47 -56t-50.5 -25.5t-45.5 -7.5q-47 0 -127 26q-77 25 -96 25q-38 0 -57.5 -17.5t-33.5 -56.5h-73z" />
<glyph unicode="&#xf2;" d="M82 522q0 110 29.5 206.5t87 173.5t153 122t217.5 45t218 -45t153.5 -122t87 -173.5t29.5 -206.5t-29.5 -206.5t-87 -173.5t-153.5 -122t-218 -45t-217.5 45t-153 122t-87 173.5t-29.5 206.5zM223 522q0 -189 91.5 -312.5t254.5 -123.5t254.5 123.5t91.5 312.5 t-91.5 312.5t-254.5 123.5t-254.5 -123.5t-91.5 -312.5zM334 1448h162l190 -295h-94z" />
<glyph unicode="&#xf3;" d="M82 522q0 110 29.5 206.5t87 173.5t153 122t217.5 45t218 -45t153.5 -122t87 -173.5t29.5 -206.5t-29.5 -206.5t-87 -173.5t-153.5 -122t-218 -45t-217.5 45t-153 122t-87 173.5t-29.5 206.5zM223 522q0 -189 91.5 -312.5t254.5 -123.5t254.5 123.5t91.5 312.5 t-91.5 312.5t-254.5 123.5t-254.5 -123.5t-91.5 -312.5zM451 1153l190 295h162l-258 -295h-94z" />
<glyph unicode="&#xf4;" d="M82 522q0 110 29.5 206.5t87 173.5t153 122t217.5 45t218 -45t153.5 -122t87 -173.5t29.5 -206.5t-29.5 -206.5t-87 -173.5t-153.5 -122t-218 -45t-217.5 45t-153 122t-87 173.5t-29.5 206.5zM223 522q0 -189 91.5 -312.5t254.5 -123.5t254.5 123.5t91.5 312.5 t-91.5 312.5t-254.5 123.5t-254.5 -123.5t-91.5 -312.5zM295 1153l190 295h168l191 -295h-94l-181 209l-180 -209h-94z" />
<glyph unicode="&#xf5;" d="M82 522q0 110 29.5 206.5t87 173.5t153 122t217.5 45t218 -45t153.5 -122t87 -173.5t29.5 -206.5t-29.5 -206.5t-87 -173.5t-153.5 -122t-218 -45t-217.5 45t-153 122t-87 173.5t-29.5 206.5zM223 522q0 -189 91.5 -312.5t254.5 -123.5t254.5 123.5t91.5 312.5 t-91.5 312.5t-254.5 123.5t-254.5 -123.5t-91.5 -312.5zM287 1200q16 76 58 130t108 54q47 0 125 -24q13 -4 35 -11.5t35 -11.5t20 -4q34 0 62.5 19t37.5 51h76q-7 -53 -27 -91t-47 -56t-50.5 -25.5t-45.5 -7.5q-47 0 -127 26q-77 25 -96 25q-38 0 -57.5 -17.5t-33.5 -56.5 h-73z" />
<glyph unicode="&#xf6;" d="M82 522q0 110 29.5 206.5t87 173.5t153 122t217.5 45t218 -45t153.5 -122t87 -173.5t29.5 -206.5t-29.5 -206.5t-87 -173.5t-153.5 -122t-218 -45t-217.5 45t-153 122t-87 173.5t-29.5 206.5zM223 522q0 -189 91.5 -312.5t254.5 -123.5t254.5 123.5t91.5 312.5 t-91.5 312.5t-254.5 123.5t-254.5 -123.5t-91.5 -312.5zM317 1219v172h154v-172h-154zM668 1219v172h153v-172h-153z" />
<glyph unicode="&#xf7;" horiz-adv-x="1228" d="M94 449v141h1039v-141h-1039zM483 117q0 54 39 92.5t92 38.5q52 0 91.5 -39t39.5 -92q0 -50 -39.5 -90.5t-91.5 -40.5t-91.5 39t-39.5 92zM483 922q0 54 39 92.5t92 38.5q52 0 91.5 -39.5t39.5 -91.5q0 -50 -39.5 -90.5t-91.5 -40.5t-91.5 39.5t-39.5 91.5z" />
<glyph unicode="&#xf8;" d="M39 -23l154 177q-111 146 -111 368q0 110 29.5 206.5t87 173.5t153 122t217.5 45q202 0 320 -115l139 162l72 -59l-150 -172q107 -139 107 -363q0 -110 -29.5 -206.5t-87 -173.5t-153.5 -122t-218 -45q-190 0 -315 109l-143 -166zM223 522q0 -150 62 -262l520 598 q-94 100 -236 100q-163 0 -254.5 -123.5t-91.5 -312.5zM340 182q90 -96 229 -96q163 0 254.5 123.5t91.5 312.5q0 151 -57 256z" />
<glyph unicode="&#xf9;" d="M162 377v667h129v-634q0 -324 248 -324q84 0 147 34.5t96.5 92t49.5 121t16 133.5v577h129v-798q0 -162 8 -246h-125v186h-4q-19 -42 -41.5 -74t-61 -66t-98.5 -52.5t-137 -18.5q-94 0 -164 30t-111 85.5t-61 126.5t-20 160zM334 1448h162l190 -295h-94z" />
<glyph unicode="&#xfa;" d="M162 377v667h129v-634q0 -324 248 -324q84 0 147 34.5t96.5 92t49.5 121t16 133.5v577h129v-798q0 -162 8 -246h-125v186h-4q-19 -42 -41.5 -74t-61 -66t-98.5 -52.5t-137 -18.5q-94 0 -164 30t-111 85.5t-61 126.5t-20 160zM451 1153l190 295h162l-258 -295h-94z" />
<glyph unicode="&#xfb;" d="M162 377v667h129v-634q0 -324 248 -324q84 0 147 34.5t96.5 92t49.5 121t16 133.5v577h129v-798q0 -162 8 -246h-125v186h-4q-19 -42 -41.5 -74t-61 -66t-98.5 -52.5t-137 -18.5q-94 0 -164 30t-111 85.5t-61 126.5t-20 160zM295 1153l190 295h168l191 -295h-94l-181 209 l-180 -209h-94z" />
<glyph unicode="&#xfc;" d="M162 377v667h129v-634q0 -324 248 -324q84 0 147 34.5t96.5 92t49.5 121t16 133.5v577h129v-798q0 -162 8 -246h-125v186h-4q-19 -42 -41.5 -74t-61 -66t-98.5 -52.5t-137 -18.5q-94 0 -164 30t-111 85.5t-61 126.5t-20 160zM317 1219v172h154v-172h-154zM668 1219v172 h153v-172h-153z" />
<glyph unicode="&#xfd;" horiz-adv-x="909" d="M18 1044h142l293 -870h2l301 870h135l-418 -1200q-21 -60 -43 -106t-54 -89.5t-75.5 -67t-95.5 -23.5q-70 0 -139 16l12 111q53 -17 96 -17q40 0 69.5 15t51.5 49.5t35.5 69.5t31.5 94l27 92zM336 1153l190 295h162l-258 -295h-94z" />
<glyph unicode="&#xfe;" d="M150 -430v1966h129v-682h4q11 24 22.5 45t39 54.5t60.5 57t86.5 41t116.5 17.5q112 0 196 -40.5t134.5 -115t75 -172t24.5 -219.5q0 -117 -27.5 -216t-79.5 -173t-135 -116t-188 -42q-122 0 -199.5 52t-125.5 163h-4v-620h-129zM279 522q0 -60 10 -118.5t33.5 -116.5 t57.5 -102t88 -71.5t120 -27.5q71 0 126.5 26.5t89 68.5t55.5 100.5t30 117t8 123.5t-8 123.5t-30 117t-55.5 100.5t-89 68.5t-126.5 26.5q-66 0 -120 -27.5t-88 -71.5t-57.5 -102t-33.5 -116.5t-10 -118.5z" />
<glyph unicode="&#xff;" horiz-adv-x="909" d="M18 1044h142l293 -870h2l301 870h135l-418 -1200q-21 -60 -43 -106t-54 -89.5t-75.5 -67t-95.5 -23.5q-70 0 -139 16l12 111q53 -17 96 -17q40 0 69.5 15t51.5 49.5t35.5 69.5t31.5 94l27 92zM203 1219v172h153v-172h-153zM553 1219v172h154v-172h-154z" />
<glyph unicode="&#x152;" horiz-adv-x="1820" d="M111 715q0 111 19.5 213.5t63 197.5t108 165t161.5 111.5t215 41.5q1 0 172 -6q114 -8 172 -8h651v-123h-555v-510h527v-123h-527v-551h580v-123h-676q-1 0 -172 -6q-114 -8 -172 -8q-118 0 -215 41.5t-161.5 111.5t-108 165t-63 197.5t-19.5 213.5zM252 715 q0 -97 14 -179.5t36 -140.5t55.5 -105t65 -76t72.5 -50t70 -31t65.5 -15.5t51.5 -6t35 -0.5q108 0 260 12v1184q-20 1 -72 4.5t-96 5.5t-92 2q-20 0 -35 -0.5t-51.5 -6t-65.5 -15.5t-70 -31t-72.5 -50t-65 -76t-55.5 -105t-36 -140.5t-14 -179.5z" />
<glyph unicode="&#x153;" horiz-adv-x="1820" d="M74 522q0 110 29.5 206.5t87 173.5t153 122t217.5 45q289 0 393 -225q116 225 375 225q107 0 189 -42.5t130.5 -115.5t72.5 -163t24 -193v-70h-715q0 -173 90.5 -286t253.5 -113q69 0 157.5 24t135.5 54v-131q-141 -58 -303 -58q-287 0 -401 213q-58 -100 -159.5 -156.5 t-242.5 -56.5q-122 0 -217.5 45t-153 122t-87 173.5t-29.5 206.5zM215 522q0 -189 91.5 -312.5t254.5 -123.5q328 0 328 436q0 71 -8.5 131t-31.5 117.5t-59 98t-94.5 65t-134.5 24.5q-163 0 -254.5 -123.5t-91.5 -312.5zM1030 596h574q0 70 -17 133.5t-49 115.5t-84 82.5 t-117 30.5q-145 0 -226 -99.5t-81 -262.5z" />
<glyph unicode="&#x178;" horiz-adv-x="1251" d="M25 1430h163l437 -699l448 699h154l-531 -824v-606h-141v606zM375 1552v172h153v-172h-153zM725 1552v172h154v-172h-154z" />
<glyph unicode="&#x2c6;" horiz-adv-x="454" d="M-47 1171l190 295h168l191 -295h-94l-181 209l-180 -209h-94z" />
<glyph unicode="&#x2dc;" horiz-adv-x="454" d="M-55 1219q16 76 58 130t108 54q44 0 125 -25q84 -26 90 -26q34 0 62.5 18.5t37.5 50.5h76q-7 -53 -27 -91t-47 -56t-50.5 -25.5t-45.5 -7.5q-44 0 -127 27q-74 24 -96 24q-38 0 -57.5 -17t-33.5 -56h-73z" />
<glyph unicode="&#x2000;" horiz-adv-x="933" />
<glyph unicode="&#x2001;" horiz-adv-x="1866" />
<glyph unicode="&#x2002;" horiz-adv-x="933" />
<glyph unicode="&#x2003;" horiz-adv-x="1866" />
<glyph unicode="&#x2004;" horiz-adv-x="622" />
<glyph unicode="&#x2005;" horiz-adv-x="466" />
<glyph unicode="&#x2006;" horiz-adv-x="311" />
<glyph unicode="&#x2007;" horiz-adv-x="311" />
<glyph unicode="&#x2008;" horiz-adv-x="233" />
<glyph unicode="&#x2009;" horiz-adv-x="373" />
<glyph unicode="&#x200a;" horiz-adv-x="103" />
<glyph unicode="&#x2010;" horiz-adv-x="681" d="M84 481v142h514v-142h-514z" />
<glyph unicode="&#x2011;" horiz-adv-x="681" d="M84 481v142h514v-142h-514z" />
<glyph unicode="&#x2012;" horiz-adv-x="681" d="M84 481v142h514v-142h-514z" />
<glyph unicode="&#x2013;" horiz-adv-x="1024" d="M0 496v110h1024v-110h-1024z" />
<glyph unicode="&#x2014;" horiz-adv-x="2048" d="M0 496v110h2048v-110h-2048z" />
<glyph unicode="&#x2018;" horiz-adv-x="569" d="M147 983l158 447h117l-121 -447h-154z" />
<glyph unicode="&#x2019;" horiz-adv-x="569" d="M147 983l121 447h154l-158 -447h-117z" />
<glyph unicode="&#x201a;" horiz-adv-x="569" d="M147 -274l121 446h154l-158 -446h-117z" />
<glyph unicode="&#x201c;" d="M252 983l158 447h116l-120 -447h-154zM612 983l158 447h117l-121 -447h-154z" />
<glyph unicode="&#x201d;" d="M252 983l121 447h153l-157 -447h-117zM612 983l121 447h154l-158 -447h-117z" />
<glyph unicode="&#x201e;" d="M252 -274l121 446h153l-155 -446h-119zM612 -274l121 446h154l-158 -446h-117z" />
<glyph unicode="&#x2022;" horiz-adv-x="1024" d="M156 715q0 148 104 253t252 105t253 -105t105 -253t-105 -252.5t-253 -104.5t-252 104.5t-104 252.5z" />
<glyph unicode="&#x2026;" horiz-adv-x="2048" d="M260 0v172h166v-172h-166zM942 0v172h166v-172h-166zM1624 0v172h166v-172h-166z" />
<glyph unicode="&#x202f;" horiz-adv-x="373" />
<glyph unicode="&#x2039;" horiz-adv-x="569" d="M80 551l287 420h120l-272 -420l272 -420h-120z" />
<glyph unicode="&#x203a;" horiz-adv-x="569" d="M82 131l272 420l-272 420h121l286 -420l-286 -420h-121z" />
<glyph unicode="&#x205f;" horiz-adv-x="466" />
<glyph unicode="&#x20ac;" d="M29 524l22 99h150q-9 92 0 184h-172l22 98h164q52 252 225 400.5t428 148.5q172 0 291 -51l-26 -129q-46 27 -125 43t-142 16q-196 0 -328.5 -116t-177.5 -312h699l-23 -98h-694q-9 -92 0 -184h657l-20 -99h-619q45 -196 176.5 -311t327.5 -115q157 0 269 56l12 -131 q-107 -48 -281 -48q-259 0 -430 146.5t-221 402.5h-184z" />
<glyph unicode="&#x2122;" horiz-adv-x="2027" d="M131 1331v99h666v-99h-269v-749h-129v749h-268zM979 582v848h209l250 -654l250 654h208v-848h-129v737h-4l-282 -737h-88l-281 737h-4v-737h-129z" />
<glyph unicode="&#xe000;" horiz-adv-x="1044" d="M0 0v1044h1044v-1044h-1044z" />
</font>
</defs>
</svg>
